<?xml version="1.0" encoding="utf-8"?><!DOCTYPE svg PUBLIC "-//W3C//DTD SVG 1.1//EN" "http://www.w3.org/Graphics/SVG/1.1/DTD/svg11.dtd"><svg version="1.1" xmlns="http://www.w3.org/2000/svg" xmlns:xlink="http://www.w3.org/1999/xlink" width="32" height="32" viewBox="0 0 32 32" data-tags="google"><g fill="#444" transform="scale(0.03125 0.03125)"><path fill="rgb(66, 133, 244)" d="M522.24 438.827v175.573h290.389c-11.733 75.307-87.723 220.757-290.389 220.757-174.72 0-317.397-144.597-317.397-323.157s142.72-323.157 317.397-323.157c99.413 0 166.016 42.197 204.16 78.891l138.837-133.888c-89.173-83.243-204.8-133.845-342.997-133.845-283.093 0-512 228.907-512 512s228.907 512 512 512c295.509 0 491.52-207.744 491.52-500.309 0-33.621-3.627-59.307-8.064-84.864z" /></g></svg>