<svg xmlns="http://www.w3.org/2000/svg" width="84.724" height="82.57" viewBox="0 0 84.724 82.57"><defs><style>.a{opacity:0.55;}.b{fill:#ffd897;}</style></defs><g class="a" transform="translate(60.792 -13.163) rotate(64)"><path class="b" d="M45,21.017C43.129,15.7,39.5,12.726,34.546,8.665A46.241,46.241,0,0,0,24.259,2.288C20.422.559,18.438-.3,16.215.1l0-.006L16.176.1,16.138.11V.116C13.979.78,12.613,2.459,10,5.756A46.221,46.221,0,0,0,3.791,16.147C1.257,22.029-.6,26.343.18,31.92c.287,2.056.942,6.739,4.8,9.717a11.236,11.236,0,0,0,5.99,2.3,12,12,0,0,0,7.373-2.117c2.386-1.532,1.891-2.286,4.006-3.552a9.959,9.959,0,0,1,5.876-1.43c2.46.154,2.367,1.05,5.19,1.316a12.007,12.007,0,0,0,7.523-1.508,11.238,11.238,0,0,0,4.263-4.8C47.256,27.438,45.687,22.976,45,21.017Z" transform="translate(22.056 34.43)"/><path class="b" d="M16.907,8.238a13.563,13.563,0,0,1,2.222,9.3c-.21,1.3-.856,5.317-4.2,7.035-3.589,1.847-7.583-.348-8.475-.839a11.3,11.3,0,0,1-3.549-3.11A14.51,14.51,0,0,1,.219,13.544C.083,12.466-1.051,2.632,3.6.426,7.732-1.537,14.083,3.665,16.907,8.238Z" transform="translate(13.311 6.349)"/><path class="b" d="M16.607,4.454a13.558,13.558,0,0,1,5.127,8.072c.226,1.3.92,5.306-1.679,8.017-2.794,2.914-7.284,2.138-8.287,1.964A11.289,11.289,0,0,1,7.4,20.72,14.509,14.509,0,0,1,2.554,14.9C2.075,13.923-2.2,4.993,1.481,1.4,4.752-1.806,12.45,1.048,16.607,4.454Z" transform="translate(0 30.028)"/><path class="b" d="M18.069,12.349a13.553,13.553,0,0,1-1.54,9.437c-.7,1.121-2.842,4.574-6.587,4.87-4.024.318-6.86-3.249-7.494-4.045a11.321,11.321,0,0,1-2.074-4.24A14.509,14.509,0,0,1,.627,10.8C.918,9.755,3.669.245,8.807,0,13.379-.21,17.229,7.041,18.069,12.349Z" transform="translate(36.275 0)"/><path class="b" d="M18.636,14.342A13.557,13.557,0,0,1,14.806,23.1c-.952.914-3.886,3.728-7.588,3.088C3.241,25.5,1.376,21.344.959,20.416A11.3,11.3,0,0,1,0,15.794,14.507,14.507,0,0,1,2.12,8.523c.542-.942,5.561-9.475,10.6-8.435C17.2,1.013,19.136,8.991,18.636,14.342Z" transform="translate(55.824 14.628)"/></g></svg>