<svg xmlns="http://www.w3.org/2000/svg" width="53.149" height="51.798" viewBox="0 0 53.149 51.798"><defs><style>.a{opacity:0.55;}.b{fill:#ffd897;}</style></defs><g class="a" transform="translate(38.136 -8.258) rotate(64)"><path class="b" d="M28.228,13.184c-1.172-3.332-3.451-5.2-6.557-7.749a29.013,29.013,0,0,0-6.453-4C12.811.351,11.566-.191,10.172.061v0l-.023.008-.024,0v0C8.77.489,7.912,1.542,6.273,3.611a28.993,28.993,0,0,0-3.895,6.518c-1.59,3.69-2.755,6.4-2.265,9.895.18,1.29.591,4.228,3.01,6.1a7.05,7.05,0,0,0,3.758,1.445,7.529,7.529,0,0,0,4.625-1.328c1.5-.961,1.186-1.434,2.513-2.228a6.247,6.247,0,0,1,3.686-.9c1.543.1,1.485.659,3.256.826a7.532,7.532,0,0,0,4.719-.946,7.05,7.05,0,0,0,2.674-3.01C29.644,17.212,28.66,14.413,28.228,13.184Z" transform="translate(13.836 21.598)"/><path class="b" d="M10.606,5.168A8.509,8.509,0,0,1,12,11c-.132.818-.537,3.335-2.633,4.413-2.251,1.158-4.757-.218-5.316-.526a7.089,7.089,0,0,1-2.226-1.951A9.1,9.1,0,0,1,.137,8.5C.052,7.82-.659,1.651,2.256.267,4.851-.964,8.835,2.3,10.606,5.168Z" transform="translate(8.35 3.983)"/><path class="b" d="M10.418,2.794a8.5,8.5,0,0,1,3.216,5.063c.142.816.577,3.328-1.053,5.029-1.753,1.828-4.57,1.341-5.2,1.232A7.083,7.083,0,0,1,4.642,13,9.1,9.1,0,0,1,1.6,9.347C1.3,8.734-1.378,3.132.929.875,2.981-1.133,7.81.657,10.418,2.794Z" transform="translate(0 18.837)"/><path class="b" d="M11.335,7.747a8.5,8.5,0,0,1-.966,5.92c-.437.7-1.783,2.869-4.132,3.055-2.524.2-4.3-2.038-4.7-2.538a7.1,7.1,0,0,1-1.3-2.66A9.1,9.1,0,0,1,.394,6.776C.576,6.119,2.3.154,5.525,0,8.393-.132,10.808,4.417,11.335,7.747Z" transform="translate(22.756 0)"/><path class="b" d="M11.69,9a8.5,8.5,0,0,1-2.4,5.5c-.6.573-2.438,2.339-4.76,1.937C2.033,16,.863,13.389.6,12.807a7.089,7.089,0,0,1-.6-2.9A9.1,9.1,0,0,1,1.33,5.347C1.67,4.755,4.819-.6,7.978.055,10.791.635,12,5.64,11.69,9Z" transform="translate(35.019 9.176)"/></g></svg>