<svg xmlns="http://www.w3.org/2000/svg" width="62.27" height="60.686" viewBox="0 0 62.27 60.686"><defs><style>.a{opacity:0.55;}.b{fill:#ffd897;}</style></defs><g class="a" transform="translate(44.68 -9.675) rotate(64)"><path class="b" d="M33.072,15.447c-1.374-3.9-4.043-6.094-7.682-9.078A33.988,33.988,0,0,0,17.83,1.682C15.01.411,13.551-.224,11.917.072l0,0-.026.009-.028,0v0C10.274.573,9.27,1.807,7.35,4.23a33.973,33.973,0,0,0-4.563,7.637C.924,16.19-.441,19.361.132,23.46c.211,1.512.693,4.953,3.527,7.142a8.256,8.256,0,0,0,4.4,1.693,8.819,8.819,0,0,0,5.419-1.556c1.753-1.126,1.39-1.68,2.944-2.61a7.32,7.32,0,0,1,4.318-1.051c1.808.113,1.74.772,3.814.967a8.824,8.824,0,0,0,5.529-1.108,8.258,8.258,0,0,0,3.133-3.526C34.732,20.166,33.578,16.887,33.072,15.447Z" transform="translate(16.21 25.305)"/><path class="b" d="M12.426,6.055a9.969,9.969,0,0,1,1.633,6.835c-.154.958-.629,3.908-3.085,5.171-2.637,1.357-5.573-.256-6.229-.617a8.306,8.306,0,0,1-2.608-2.286,10.666,10.666,0,0,1-1.977-5.2c-.1-.792-.933-8.02,2.482-9.641C5.683-1.129,10.351,2.694,12.426,6.055Z" transform="translate(9.783 4.666)"/><path class="b" d="M12.206,3.273a9.964,9.964,0,0,1,3.768,5.932c.166.956.676,3.9-1.234,5.892-2.054,2.142-5.354,1.571-6.091,1.444a8.3,8.3,0,0,1-3.211-1.313,10.665,10.665,0,0,1-3.561-4.278c-.352-.718-3.492-7.281-.789-9.925C3.493-1.327,9.15.77,12.206,3.273Z" transform="translate(0 22.069)"/><path class="b" d="M13.28,9.076a9.961,9.961,0,0,1-1.132,6.936c-.512.824-2.089,3.362-4.842,3.58C4.35,19.826,2.265,17.2,1.8,16.619A8.32,8.32,0,0,1,.275,13.5,10.665,10.665,0,0,1,.461,7.939C.675,7.17,2.7.18,6.473,0,9.833-.154,12.663,5.175,13.28,9.076Z" transform="translate(26.661 0)"/><path class="b" d="M13.7,10.541a9.964,9.964,0,0,1-2.814,6.439c-.7.672-2.856,2.74-5.577,2.269-2.923-.506-4.294-3.562-4.6-4.244a8.306,8.306,0,0,1-.7-3.4A10.662,10.662,0,0,1,1.558,6.264c.4-.693,4.087-6.964,7.789-6.2C12.643.744,14.065,6.608,13.7,10.541Z" transform="translate(41.029 10.751)"/></g></svg>