<svg xmlns="http://www.w3.org/2000/svg" width="90.296" height="89.676" viewBox="0 0 90.296 89.676"><defs><style>.a{fill:#6d23aa;stroke:#690050;stroke-miterlimit:10;stroke-width:0.275px;}.b{fill:#f9f9f9;}.c{fill:#ffa000;font-size:16px;font-family:PumpkinCheesecakeRegular, Pumpkin Cheesecake;}</style></defs><g transform="translate(-347.99 -317.243)"><path class="a" d="M406.545,357.936c.38.5.985.27,1.84.649a4.128,4.128,0,0,1,1.732,1.732c.919,1.389.443,1.833,1.19,3.031a8.083,8.083,0,0,0,4.222,3.464,2.466,2.466,0,0,1,1.624.866,1.706,1.706,0,0,1,0,1.516c-.159.339-.318.373-.98,1.082-.624.669-.509.668-.752.866-.912.742-1.813.207-2.273.758-.492.588.341,1.5-.108,2.056-.386.483-1.365.3-2.381.108-2.029-.392-2.317-1.006-3.356-.974a4.111,4.111,0,0,0-3.03,1.948c-1.037,1.6-.145,2.966-.216,6.17a18.107,18.107,0,0,1-1.191,5.953c-.12.331-.253.655-.253.655s-.344.839-.778,1.652c-.691,1.292-1.689,2.541-2.757,4.3a37.315,37.315,0,0,0-1.844,3.466c-.39.815-.787,1.71-1.187,2.7a65.67,65.67,0,0,0-2.056,6.819c-.9,3.294-1.114,4.534-.433,5.628a7.322,7.322,0,0,0,1.948,1.84c1.14.742,1.878.766,2.381,1.516a2.853,2.853,0,0,1,.325,2.056c-5.182.181-9.245.34-11.581.433-8.508.339-17.035-.307-25.544,0a12.358,12.358,0,0,1-6.711-1.082c-5.119-2.7-6.018-9.077-6.061-9.417-.111-.885-.9-7.89,3.247-9.958,2.988-1.49,7.565.07,8.442,2.382.265.7.262,1.645-.108,1.84-.609.321-1.564-1.736-3.355-2.056-1.738-.311-3.861,1.085-4.654,2.814-1.327,2.893,1.155,6.532,3.68,8.117,1.835,1.153,4.852,1.948,6.277.65.627-.57.667-1.292.974-4.113.2-1.842.537-3.671.65-5.52.244-4,2.438-9.53,5.087-13.422,3.192-4.688,7.165-7.171,13.529-11.148,3.624-2.265,6.4-3.535,8.659-7.035.881-1.363.516-1.256,2.814-5.52,2.845-5.279,4.023-6.591,5.52-7.468a13.923,13.923,0,0,0,2.273-1.407c1.628-1.307,1.6-2.063,2.922-3.03,1.628-1.194,3.782-1.594,4.113-1.082.108.167-.035.342-.758,1.732a9.543,9.543,0,0,0-1.19,2.922C406.33,357.07,406.257,357.559,406.545,357.936Z" transform="translate(0 -12.911)"/><path class="a" d="M432.127,405.825c1.556-.763,2.912-1.483,5.623-2.922,3.16-1.678,3.981-2.152,5.52-2.381a7.771,7.771,0,0,1,3.03.108c1.132.277,3.132,1.054,3.1,1.9-.036.871-2.2,1.575-3.746,1.776-2.093.273-2.569-.439-4.113,0-.737.21-1.046.491-3.356,2.49-3.764,3.259-3.336,2.853-4,3.464-2.769,2.53-2.677,2.694-3.788,3.463-.656.454-4.12,2.855-5.2,1.949-1.155-.974.3-5.89,3.572-8.226A32.4,32.4,0,0,1,432.127,405.825Z" transform="translate(-29.262 -31.576)"/><path class="b" d="M382.587,429.749c.534-1.022-.121-2.107-.608-3.878a18.766,18.766,0,0,1-.541-3.846,14.388,14.388,0,0,1,1.082-5.769,18.72,18.72,0,0,1,2.989-5.232c2.043-2.53,2.9-2.276,3.68-4.005.794-1.752-.083-2.184.433-5.628.37-2.462.661-4.408,2.165-5.628.862-.7,1.5-.651,2.814-1.84.935-.843,1.478-1.645,1.732-1.515.383.2-.453,2.249,0,2.489.339.18,1.066-.839,1.407-.649.308.171-.234,1.027.108,1.948.1.268.25.477,1.84,1.732,1.2.949,1.506,1.137,1.516,1.515.011.461-.431.535-.758,1.407-.276.737-.062.959-.324,1.3-.577.749-2.137.358-2.165.541s1.458.164,2.381,1.082c1.1,1.092.379,2.488,1.19,3.03,1.1.734,3.716-.947,5.2-2.273,1.66-1.488,1.785-2.44,3.247-2.922.993-.328,2.615-.444,3.18.433a1.516,1.516,0,0,1-.041,1.624c-.54.731-1.533.244-2.706.65-1.3.451-1.344,1.491-3.572,4.762-1.3,1.912-1.956,2.865-2.706,3.247-1.3.662-2.45.422-3.356,1.516-.456.55-.253.718-.757,1.407-.864,1.179-1.676.983-2.706,1.948-1.116,1.046-1.857,2.865-1.3,3.788.282.467.735.439,1.191,1.191a3.547,3.547,0,0,1,.433,1.3,6.282,6.282,0,0,1,0,2.49c-.3,1.436-.839,1.441-.974,2.6a3.108,3.108,0,0,0,.541,2.381c1.171,1.239,3.759.181,4.033.857.09.221-.069.628-1.064,1.436a11.7,11.7,0,0,1-5.134.088,5.883,5.883,0,0,0-2.056-.217,14.071,14.071,0,0,0-2.49.758c-1.454.294-2.205-.519-3.9-.974-1.538-.414-2.485-.166-4.871.108-3.388.39-6.985.08-14.179-.541-.76-.066-1.926-.182-2.381-.974-.577-1,.214-2.691,1.3-3.572a3.61,3.61,0,0,1,4.113-.433c.536.392.92,1.07.758,1.3-.184.26-.912-.277-2.056-.216-1.106.058-2.348.661-2.381,1.3-.028.537.808.989,1.19,1.19,1.9,1,3.346.512,6.711.433,3.3-.078,4.937.322,6.711-.758A2.629,2.629,0,0,0,382.587,429.749Z" transform="translate(-6.41 -28.51)"/><g transform="translate(349.111 317.743)"><path class="a" d="M421.22,317.743a73.909,73.909,0,0,0,44.215,24.812Z" transform="translate(-377.005 -317.743)"/><path class="a" d="M375.43,333.227a74.057,74.057,0,0,0,18.47-15.484l-44.215,24.812A74.156,74.156,0,0,0,375.43,333.227Z" transform="translate(-349.685 -317.743)"/></g><text class="c" transform="translate(398.904 403.918)"><tspan x="0" y="0">paTItas</tspan></text></g></svg>